<svg width="6" height="9" viewBox="0 0 6 9" fill="none" xmlns="http://www.w3.org/2000/svg">
<path d="M4.64373 8.87502C4.55036 8.87534 4.4581 8.85473 4.37374 8.81471C4.28938 8.77469 4.21505 8.71628 4.15623 8.64377L1.13748 4.89377C1.04555 4.78194 0.9953 4.64166 0.9953 4.49689C0.9953 4.35213 1.04555 4.21185 1.13748 4.10002L4.26248 0.35002C4.36857 0.222384 4.52101 0.142119 4.68628 0.126882C4.85154 0.111644 5.0161 0.162683 5.14373 0.26877C5.27137 0.374856 5.35163 0.527301 5.36687 0.692567C5.38211 0.857834 5.33107 1.02238 5.22498 1.15002L2.43123 4.50002L5.13123 7.85002C5.20766 7.94176 5.25621 8.05347 5.27113 8.17194C5.28606 8.29041 5.26673 8.41067 5.21545 8.5185C5.16416 8.62633 5.08306 8.71722 4.98174 8.7804C4.88042 8.84358 4.76313 8.87641 4.64373 8.87502Z" fill="black"/>
</svg>
