<svg width="6" height="9" viewBox="0 0 6 9" fill="none" xmlns="http://www.w3.org/2000/svg">
<path d="M1.35627 0.124981C1.44964 0.124664 1.5419 0.145272 1.62626 0.18529C1.71062 0.225308 1.78494 0.283719 1.84377 0.356232L4.86252 4.10623C4.95445 4.21806 5.0047 4.35834 5.0047 4.50311C5.0047 4.64787 4.95445 4.78815 4.86252 4.89998L1.73752 8.64998C1.63143 8.77762 1.47899 8.85788 1.31372 8.87312C1.14846 8.88836 0.983905 8.83732 0.856269 8.73123C0.728634 8.62514 0.648369 8.4727 0.633131 8.30743C0.617894 8.14217 0.668933 7.97762 0.775019 7.84998L3.56877 4.49998L0.868769 1.14998C0.792342 1.05824 0.743794 0.946528 0.728869 0.82806C0.713944 0.709592 0.733268 0.589327 0.784552 0.481497C0.835837 0.373667 0.916937 0.282785 1.01826 0.219604C1.11958 0.156423 1.23687 0.123587 1.35627 0.124981Z" fill="black"/>
</svg>
