<svg width="16" height="16" viewBox="0 0 16 16" fill="none" xmlns="http://www.w3.org/2000/svg">
<path d="M7.9925 0.5C3.8525 0.5 0.5 3.86 0.5 8C0.5 12.14 3.8525 15.5 7.9925 15.5C12.14 15.5 15.5 12.14 15.5 8C15.5 3.86 12.14 0.5 7.9925 0.5ZM11 11C10.9306 11.0695 10.8482 11.1247 10.7575 11.1623C10.6667 11.2 10.5695 11.2193 10.4713 11.2193C10.373 11.2193 10.2758 11.2 10.185 11.1623C10.0943 11.1247 10.0119 11.0695 9.9425 11L7.475 8.5325C7.40413 8.46304 7.34776 8.38021 7.30913 8.2888C7.27051 8.19739 7.25041 8.09923 7.25 8V5C7.25 4.5875 7.5875 4.25 8 4.25C8.4125 4.25 8.75 4.5875 8.75 5V7.6925L11 9.9425C11.2925 10.235 11.2925 10.7075 11 11Z" fill="#056EA1"/>
</svg>
