<svg width="7" height="4" viewBox="0 0 7 4" fill="none" xmlns="http://www.w3.org/2000/svg">
<path d="M6.12501 1.23751C6.1252 1.29976 6.11284 1.36126 6.08883 1.41751C6.06482 1.47375 6.02977 1.5233 5.98626 1.56251L3.73626 3.57501C3.66916 3.6363 3.585 3.6698 3.49814 3.6698C3.41128 3.6698 3.32711 3.6363 3.26001 3.57501L1.01001 1.49168C0.933431 1.42096 0.885271 1.31933 0.876129 1.20915C0.866987 1.09897 0.89761 0.98927 0.961262 0.90418C1.02491 0.819089 1.11638 0.765579 1.21554 0.755421C1.3147 0.745263 1.41343 0.779288 1.49001 0.850013L3.50001 2.71251L5.51001 0.912513C5.56506 0.861562 5.63208 0.829196 5.70316 0.819246C5.77425 0.809296 5.8464 0.822178 5.9111 0.856368C5.9758 0.890558 6.03033 0.944625 6.06824 1.01217C6.10615 1.07972 6.12585 1.15792 6.12501 1.23751Z" fill="black"/>
</svg>
