<svg width="10" height="12" viewBox="0 0 10 12" fill="none" xmlns="http://www.w3.org/2000/svg">
<path d="M9.08338 10.6667H0.916718C0.762008 10.6667 0.613635 10.7281 0.504239 10.8375C0.394843 10.9469 0.333384 11.0953 0.333384 11.25C0.333384 11.4047 0.394843 11.5531 0.504239 11.6625C0.613635 11.7719 0.762008 11.8333 0.916718 11.8333H9.08338C9.23809 11.8333 9.38647 11.7719 9.49586 11.6625C9.60526 11.5531 9.66672 11.4047 9.66672 11.25C9.66672 11.0953 9.60526 10.9469 9.49586 10.8375C9.38647 10.7281 9.23809 10.6667 9.08338 10.6667ZM0.916718 9.49999H0.969218L3.40172 9.27832C3.66818 9.25178 3.9174 9.13438 4.10755 8.94582L9.35755 3.69582C9.56132 3.48055 9.67144 3.19328 9.66379 2.89697C9.65613 2.60065 9.53133 2.31945 9.31672 2.11499L7.71838 0.516655C7.50978 0.320711 7.23643 0.208281 6.95033 0.200752C6.66423 0.193223 6.38534 0.29112 6.16672 0.475822L0.916718 5.72582C0.728164 5.91597 0.610762 6.16519 0.584218 6.43166L0.333384 8.86416C0.325526 8.9496 0.336613 9.03572 0.365853 9.11638C0.395094 9.19704 0.441769 9.27026 0.502551 9.33082C0.557058 9.38489 0.6217 9.42766 0.692772 9.45669C0.763844 9.48572 0.839947 9.50043 0.916718 9.49999ZM6.90755 1.33332L8.50005 2.92582L7.33338 4.06332L5.77005 2.49999L6.90755 1.33332Z" fill="white"/>
</svg>
