<svg width="13" height="15" viewBox="0 0 13 15" fill="none" xmlns="http://www.w3.org/2000/svg">
<path d="M10.8612 10.9581L10.0204 11.7897C9.40064 12.3974 8.59668 13.1794 7.60784 14.1357C7.31065 14.423 6.91342 14.5837 6.50001 14.5837C6.08661 14.5837 5.68938 14.423 5.39218 14.1357L2.91939 11.7302C2.60843 11.4249 2.34847 11.1678 2.1388 10.9581C1.27631 10.0955 0.688963 8.9966 0.451026 7.80024C0.21309 6.60388 0.335252 5.36383 0.802065 4.2369C1.26888 3.10997 2.05938 2.14678 3.0736 1.46911C4.08782 0.791437 5.28022 0.429733 6.50001 0.429733C7.7198 0.429733 8.9122 0.791437 9.92642 1.46911C10.9406 2.14678 11.7311 3.10997 12.198 4.2369C12.6648 5.36383 12.7869 6.60388 12.549 7.80024C12.3111 8.9966 11.7237 10.0955 10.8612 10.9581ZM8.27084 6.79167C8.27084 6.32202 8.08428 5.8716 7.75218 5.5395C7.42008 5.20741 6.96967 5.02084 6.50001 5.02084C6.03036 5.02084 5.57994 5.20741 5.24784 5.5395C4.91575 5.8716 4.72918 6.32202 4.72918 6.79167C4.72918 7.26132 4.91575 7.71174 5.24784 8.04384C5.57994 8.37593 6.03036 8.5625 6.50001 8.5625C6.96967 8.5625 7.42008 8.37593 7.75218 8.04384C8.08428 7.71174 8.27084 7.26132 8.27084 6.79167Z" fill="#056EA1"/>
</svg>
