<svg width="16" height="18" viewBox="0 0 16 18" fill="none" xmlns="http://www.w3.org/2000/svg">
<path d="M15.9167 4C15.9167 4.20411 15.8417 4.40111 15.7061 4.55364C15.5705 4.70617 15.3836 4.80362 15.1809 4.8275L15.0834 4.83333H14.3792L13.3534 15.2667C13.2975 15.8328 13.0331 16.3579 12.6115 16.7399C12.19 17.1219 11.6414 17.3334 11.0725 17.3333H4.92754C4.35866 17.3334 3.8101 17.1219 3.38854 16.7399C2.96698 16.3579 2.70256 15.8328 2.64671 15.2667L1.62087 4.83333H0.916707C0.695693 4.83333 0.483732 4.74554 0.327452 4.58926C0.171171 4.43298 0.083374 4.22101 0.083374 4C0.083374 3.77899 0.171171 3.56703 0.327452 3.41074C0.483732 3.25446 0.695693 3.16667 0.916707 3.16667H5.08337C5.08337 2.78364 5.15881 2.40437 5.30539 2.05051C5.45197 1.69664 5.66681 1.37511 5.93764 1.10427C6.20848 0.833434 6.53001 0.618594 6.88388 0.472018C7.23775 0.325442 7.61702 0.25 8.00004 0.25C8.38306 0.25 8.76233 0.325442 9.1162 0.472018C9.47007 0.618594 9.7916 0.833434 10.0624 1.10427C10.3333 1.37511 10.5481 1.69664 10.6947 2.05051C10.8413 2.40437 10.9167 2.78364 10.9167 3.16667H15.0834C15.3044 3.16667 15.5163 3.25446 15.6726 3.41074C15.8289 3.56703 15.9167 3.77899 15.9167 4ZM9.87504 6.70833C9.72401 6.70834 9.57809 6.76304 9.46426 6.86231C9.35044 6.96158 9.27641 7.09871 9.25587 7.24833L9.25004 7.33333V13.1667L9.25587 13.2517C9.27645 13.4013 9.3505 13.5383 9.46432 13.6376C9.57814 13.7368 9.72404 13.7915 9.87504 13.7915C10.026 13.7915 10.1719 13.7368 10.2858 13.6376C10.3996 13.5383 10.4736 13.4013 10.4942 13.2517L10.5 13.1667V7.33333L10.4942 7.24833C10.4737 7.09871 10.3996 6.96158 10.2858 6.86231C10.172 6.76304 10.0261 6.70834 9.87504 6.70833ZM6.12504 6.70833C5.97401 6.70834 5.82809 6.76304 5.71426 6.86231C5.60044 6.96158 5.52641 7.09871 5.50587 7.24833L5.50004 7.33333V13.1667L5.50587 13.2517C5.52646 13.4013 5.6005 13.5383 5.71432 13.6376C5.82814 13.7368 5.97404 13.7915 6.12504 13.7915C6.27604 13.7915 6.42194 13.7368 6.53576 13.6376C6.64958 13.5383 6.72362 13.4013 6.74421 13.2517L6.75004 13.1667V7.33333L6.74421 7.24833C6.72367 7.09871 6.64964 6.96158 6.53581 6.86231C6.42199 6.76304 6.27607 6.70834 6.12504 6.70833ZM8.00004 1.91667C7.66852 1.91667 7.35058 2.04836 7.11616 2.28278C6.88174 2.5172 6.75004 2.83515 6.75004 3.16667H9.25004C9.25004 2.83515 9.11834 2.5172 8.88392 2.28278C8.6495 2.04836 8.33156 1.91667 8.00004 1.91667Z" fill="#EE2B00"/>
</svg>
